PathFileType	4	(X/Y/Z)	./resultDataOpenSim/trcMotMarkerGrf/sub06/qtm-04-07.trc
DataRate	CameraRate	NumFrames	NumMarkers	Units	OrigDataRate	OrigDataStartFrame	OrigNumFrames
250.000000	250.000000	6	24	m	250.000000	1	554
Frame#	Time	L.Toe.Tip			R.Toe.Tip			L.Ankle.Lat			R.Ankle.Lat			L.Ankle.Med			R.Ankle.Med			L.Heel			R.Heel			L.Knee.Lat			R.Knee.Lat			L.Knee.Med			R.Knee.Med			L.Thigh.Upper			R.Thigh.Upper			L.ASIS			R.ASIS			V.Sacral			L.Acromium			R.Acromium			C7			L.Elbow			R.Elbow			L.Wrist.Lat			R.Wrist.Lat
		X1	Y1	Z1	X2	Y2	Z2	X3	Y3	Z3	X4	Y4	Z4	X5	Y5	Z5	X6	Y6	Z6	X7	Y7	Z7	X8	Y8	Z8	X9	Y9	Z9	X10	Y10	Z10	X11	Y11	Z11	X12	Y12	Z12	X13	Y13	Z13	X14	Y14	Z14	X15	Y15	Z15	X16	Y16	Z16	X17	Y17	Z17	X18	Y18	Z18	X19	Y19	Z19	X20	Y20	Z20	X21	Y21	Z21	X22	Y22	Z22	X23	Y23	Z23	X24	Y24	Z24

1	0	-1.5682068	0.033006057	-0.059973635	-1.045427	0.090851808	0.11472231	-1.6907142	0.069705118	-0.059372913	-1.175204	0.079319847	0.12817738	-1.6825349	0.080601229	0.025589633	-1.1619103	0.10948313	0.044201026	NaN	NaN	NaN	-1.2169052	0.042736807	0.054740123	-1.5544615	0.41613726	-0.093589691	-1.2638215	0.45788241	0.14354652	-1.5535624	0.4167993	0.027123075	-1.2821405	0.43687224	0.014046815	-1.4827093	0.79684849	-0.1661598	-1.4394418	0.78993113	0.17946839	-1.3972794	0.83717687	-0.1321001	-1.361491	0.84265548	0.10991805	-1.5565574	0.9171392	0.029007348	-1.4255523	1.3238027	-0.1877277	-1.4206333	1.3112305	0.17547785	-1.4987344	1.3582552	-0.0049716956	-1.4365875	1.0014146	-0.255613	NaN	NaN	NaN	-1.2267615	0.86625171	-0.24048829	-1.42533	0.80543376	0.26226457
2	0.004	-1.5680943	0.032977271	-0.06002557	-1.0322306	0.094481483	0.11426147	-1.6904727	0.069865484	-0.059333597	-1.1620463	0.080112246	0.12780014	-1.6809339	0.081210467	0.025089742	-1.1494752	0.11049173	0.043679252	NaN	NaN	NaN	-1.2032289	0.042555859	0.054540461	-1.5516622	0.41532303	-0.093507935	-1.2585105	0.45633964	0.14285736	-1.551015	0.41557283	0.027178887	-1.2758329	0.43556832	0.01283966	-1.4778992	0.79536368	-0.16568358	-1.4341993	0.78799853	0.17942228	-1.3921557	0.83570399	-0.13216931	-1.3557924	0.84120786	0.10989349	-1.5511246	0.91555981	0.029353448	-1.4204306	1.322183	-0.18763266	-1.4155902	1.3095089	0.17567549	-1.4936471	1.3568015	-0.0049736859	-1.4307253	0.99968009	-0.25679701	NaN	NaN	NaN	-1.2196003	0.86594034	-0.23959204	-1.4219936	0.80352011	0.26254737
3	0.008	-1.5680038	0.032945191	-0.06003629	-1.0194582	0.098088417	0.11367002	-1.6901873	0.070065317	-0.059290838	-1.1491186	0.080939373	0.12736157	-1.6795265	0.081759998	0.024684912	-1.1373097	0.11149522	0.043097138	NaN	NaN	NaN	-1.1897697	0.042400044	0.054243712	-1.5488102	0.41449326	-0.09343127	-1.253086	0.45487137	0.14217506	-1.5483274	0.41438814	0.027202823	-1.2695177	0.43434449	0.011683217	-1.4730313	0.79389624	-0.16513943	-1.4289547	0.78609827	0.17930206	-1.387128	0.83418027	-0.13235164	-1.3501741	0.83973532	0.10985206	-1.5456764	0.9139675	0.029679405	-1.4152856	1.3205612	-0.18751961	-1.410555	1.3077959	0.1758974	-1.48856	1.3553397	-0.0048186648	-1.4247654	0.99793095	-0.25777873	NaN	NaN	NaN	-1.2124758	0.86560551	-0.23868441	-1.4185949	0.8015843	0.26282641
4	0.012	-1.5679361	0.032910979	-0.060004848	-1.0072688	0.10163304	0.11296267	-1.6898418	0.070327001	-0.059243328	-1.1365845	0.081805076	0.12680973	-1.6784271	0.082211935	0.024446569	-1.1255349	0.11249754	0.042417185	NaN	NaN	NaN	-1.1766587	0.042287711	0.053789004	-1.5458668	0.41363811	-0.093354088	-1.2475456	0.45349858	0.14150282	-1.5454139	0.41326799	0.027176295	-1.2631771	0.43323734	0.010589863	-1.468091	0.79244792	-0.16453372	-1.4236953	0.78423108	0.17910794	-1.3821487	0.83261326	-0.13261284	-1.3446179	0.83823781	0.10978744	-1.5402506	0.91238073	0.030019882	-1.4101079	1.3189303	-0.18737779	-1.4055162	1.3060955	0.17615523	-1.4834381	1.3538741	-0.0044914186	-1.418584	0.99617103	-0.2583197	NaN	NaN	NaN	-1.2053979	0.86522932	-0.23775905	-1.4151103	0.79962834	0.26310925
5	0.016	-1.5678782	0.032879191	-0.059956518	-0.99564541	0.10505498	0.11223405	-1.6894498	0.070649404	-0.059189364	-1.1245459	0.08267026	0.12611529	-1.6776285	0.082571813	0.024387985	-1.1141624	0.11350258	0.041635548	NaN	NaN	NaN	-1.1639496	0.042231894	0.053147757	-1.5428245	0.41276007	-0.093280976	-1.2419415	0.45221056	0.14084225	-1.5422602	0.41221696	0.027095985	-1.2568085	0.43223634	0.0095703878	-1.4631221	0.79100275	-0.16395327	-1.4184135	0.78237796	0.17888863	-1.3771257	0.83103682	-0.13284987	-1.3390564	0.83673753	0.10971397	-1.5349783	0.91084966	0.030468255	-1.4049211	1.3172867	-0.18721598	-1.4004604	1.304404	0.17644474	-1.4782448	1.3524148	-0.0041059306	-1.4121429	0.99441168	-0.25834226	NaN	NaN	NaN	-1.1983709	0.86480319	-0.23682069	-1.4115485	0.79766922	0.26340966
6	0.02	-1.5678212	0.032852557	-0.059911441	-0.98453448	0.10827435	0.11154295	-1.689037	0.071015229	-0.059128182	-1.113039	0.083474548	0.12527251	-1.6770403	0.082883978	0.02445349	-1.1031618	0.11450114	0.040770249	NaN	NaN	NaN	-1.1516291	0.042241439	0.052315433	-1.5396961	0.41186799	-0.093228657	-1.2362442	0.45100759	0.1402033	-1.5388861	0.41122913	0.02696645	-1.2504115	0.43131252	0.0086472483	-1.4581778	0.78954075	-0.16350935	-1.4131159	0.78051644	0.17868201	-1.3720247	0.82946982	-0.13301569	-1.3334308	0.83525019	0.10965474	-1.5299764	0.90940737	0.031104274	-1.3997504	1.3156341	-0.18705754	-1.3953761	1.302707	0.17675757	-1.47298	1.3509599	-0.0037876562	-1.4055463	0.99265558	-0.25802465	NaN	NaN	NaN	-1.1913934	0.86432435	-0.23588457	-1.4079171	0.79571738	0.26373736
